<?xml version="1.0" standalone="no"?>
<!DOCTYPE svg PUBLIC "-//W3C//DTD SVG 1.1//EN" "http://www.w3.org/Graphics/SVG/1.1/DTD/svg11.dtd"><svg xmlns="http://www.w3.org/2000/svg" style="background-color:#FFF" width="149" height="28"><path stroke="black" fill="none" stroke-width="1" d="M16.26, 3.01L17.46, 3.17L18.55, 3.62L19.49, 4.34L20.23, 5.29L24.1, 11.95L24.57, 13.07L24.72, 14.26L24.57, 15.44L24.1, 16.57L20.23, 23.22L19.49, 24.17L18.55, 24.89L17.46, 25.35L16.26, 25.5L8.46, 25.5L7.27, 25.35L6.17, 24.89L5.23, 24.17L4.49, 23.22L0.62, 16.57L0.16, 15.44L0, 14.26L0.16, 13.07L0.62, 11.95L4.49, 5.29L5.23, 4.34L6.17, 3.62L7.27, 3.17L8.46, 3.01L16.26, 3.01"/><path stroke="black" fill="none" stroke-width="1" d="M7.83, 19.48L10.35, 16.96L16.23, 16.96L16.82, 16.71L17.07, 16.12L17.07, 11.08L16.82, 10.49L16.23, 10.24L8.67, 10.24L8.08, 10.49L7.83, 11.08L7.83, 19.48"/></svg>